<svg width="1280" height="180" viewBox="0 0 1280 180" fill="none" xmlns="http://www.w3.org/2000/svg">
<path d="M0 40H19.3778C38.7556 40 77.3333 40 116.444 60C155.111 80 193.778 120 232.889 113.312C271.556 106.875 310.222 53.125 349.333 40C387.911 26.875 426.667 53.125 465.778 73.3125C504.267 93.125 543.111 106.875 582.222 106.688C620.622 106.875 659.556 93.125 697.778 96.6875C736.978 100 776 120 814.222 106.688C853.333 93.125 892.444 46.875 930.667 36.6875C969.689 26.875 1008.89 53.125 1047.11 76.6875C1086.04 100 1124.44 120 1163.56 106.688C1202.4 93.125 1240.89 46.875 1260.44 23.3125L1280 0V180H1260.62C1241.24 180 1202.67 180 1163.56 180C1124.89 180 1086.22 180 1047.11 180C1008.44 180 969.778 180 930.667 180C892.089 180 853.333 180 814.222 180C775.733 180 736.889 180 697.778 180C659.378 180 620.444 180 582.222 180C543.022 180 504 180 465.778 180C426.667 180 387.556 180 349.333 180C310.311 180 271.111 180 232.889 180C193.956 180 155.556 180 116.444 180C77.6 180 39.1111 180 19.5556 180H0V40Z" fill="#222937"/>
</svg>
