<svg width="1280" height="180" viewBox="0 0 1280 180" fill="none" xmlns="http://www.w3.org/2000/svg">
<path d="M1280 162L1226.67 135C1173.33 108 1066.67 54 960 54C853.333 54 746.667 108 640 128.981C533.333 150.188 426.667 137.813 320 141.019C213.333 144 106.667 162 53.3334 171L0 180L-1.57361e-05 0.000111901L53.3334 0.000107239C106.667 0.000102576 213.333 9.3251e-05 320 8.39259e-05C426.667 7.46008e-05 533.333 6.52757e-05 640 5.59506e-05C746.667 4.66255e-05 853.333 3.73004e-05 960 2.79753e-05C1066.67 1.86502e-05 1173.33 9.3251e-06 1226.67 4.66255e-06L1280 0L1280 162Z" fill="#222937"/>
</svg>
