<svg width="360" height="89" viewBox="0 0 360 89" fill="none" xmlns="http://www.w3.org/2000/svg">
<path d="M-84 19.6H-76.0067C-68.0133 19.6 -52.1 19.6 -35.9667 29.4C-20.0167 39.2 -4.06667 58.8 12.0667 55.5231C28.0167 52.3687 43.9667 26.0312 60.1 19.6C76.0133 13.1687 92 26.0312 108.133 35.9231C124.01 45.6312 140.033 52.3687 156.167 52.2769C172.007 52.3687 188.067 45.6312 203.833 47.3769C220.003 49 236.1 58.8 251.867 52.2769C268 45.6312 284.133 22.9687 299.9 17.9769C315.997 13.1687 332.167 26.0312 347.933 37.5769C363.993 49 379.833 58.8 395.967 52.2769C411.99 45.6312 427.867 22.9688 435.933 11.4231L444 0V88.2H436.007C428.013 88.2 412.1 88.2 395.967 88.2C380.017 88.2 364.067 88.2 347.933 88.2C331.983 88.2 316.033 88.2 299.9 88.2C283.987 88.2 268 88.2 251.867 88.2C235.99 88.2 219.967 88.2 203.833 88.2C187.993 88.2 171.933 88.2 156.167 88.2C139.997 88.2 123.9 88.2 108.133 88.2C92 88.2 75.8667 88.2 60.1 88.2C44.0033 88.2 27.8333 88.2 12.0667 88.2C-3.99333 88.2 -19.8333 88.2 -35.9667 88.2C-51.99 88.2 -67.8667 88.2 -75.9333 88.2H-84V19.6Z" fill="#222937"/>
</svg>
