<svg width="360" height="120" viewBox="0 0 360 120" fill="none" xmlns="http://www.w3.org/2000/svg">
<path d="M444 108L425.5 90C407 72 370 36.0001 333 36.0001C296 36.0001 259 72.0001 222 85.9875C185 100.125 148 91.875 111 94.0125C74 96 37 108 18.5 114L0 120L-1.04907e-05 0.000122739L18.5 0.000121122C37 0.000119504 74 0.00011627 111 0.000113035C148 0.0001098 185 0.000106566 222 0.000103331C259 0.000100097 296 9.68619e-05 333 9.36273e-05C370 9.03926e-05 407 8.7158e-05 425.5 8.55407e-05L444 8.39233e-05L444 108Z" fill="#222937"/>
</svg>
