<svg width="744" height="110" viewBox="0 0 744 110" fill="none" xmlns="http://www.w3.org/2000/svg">
<path d="M0 24.4444H11.2633C22.5267 24.4444 44.95 24.4444 67.6833 36.6667C90.1583 48.8889 112.633 73.3333 135.367 69.2465C157.842 65.3125 180.317 32.4653 203.05 24.4444C225.473 16.4236 248 32.4653 270.733 44.8021C293.105 56.9097 315.683 65.3125 338.417 65.1979C360.737 65.3125 383.367 56.9097 405.583 59.0868C428.368 61.1111 451.05 73.3333 473.267 65.1979C496 56.9097 518.733 28.6458 540.95 22.4201C563.632 16.4236 586.417 32.4653 608.633 46.8646C631.263 61.1111 653.583 73.3333 676.317 65.1979C698.895 56.9097 721.267 28.6458 732.633 14.2465L744 0V110H732.737C721.473 110 699.05 110 676.317 110C653.842 110 631.367 110 608.633 110C586.158 110 563.683 110 540.95 110C518.527 110 496 110 473.267 110C450.895 110 428.317 110 405.583 110C383.263 110 360.633 110 338.417 110C315.632 110 292.95 110 270.733 110C248 110 225.267 110 203.05 110C180.368 110 157.583 110 135.367 110C112.737 110 90.4167 110 67.6833 110C45.105 110 22.7333 110 11.3667 110H0V24.4444Z" fill="#222937"/>
</svg>
