<svg width="744" height="160" viewBox="0 0 744 160" fill="none" xmlns="http://www.w3.org/2000/svg">
<path d="M744 144L713 120C682 96 620 48 558 48C496 48 434 96 372 114.65C310 133.5 248 122.5 186 125.35C124 128 62 144 31 152L0 160L-1.39876e-05 6.50425e-05L31 6.23324e-05C62 5.96223e-05 124 5.42021e-05 186 4.87819e-05C248 4.33617e-05 310 3.79415e-05 372 3.25213e-05C434 2.71011e-05 496 2.16808e-05 558 1.62606e-05C620 1.08404e-05 682 5.42021e-06 713 2.71011e-06L744 0L744 144Z" fill="#222937"/>
</svg>
